<mxfile host="app.diagrams.net" modified="2020-12-01T09:41:02.467Z" agent="5.0 (Windows NT 10.0; Win64; x64) AppleWebKit/537.36 (KHTML, like Gecko) Chrome/87.0.4280.66 Safari/537.36" etag="A97QSX0lash3bYV0RJp0" version="13.10.4" type="github">
  <diagram id="C5RBs43oDa-KdzZeNtuy" name="Page-1">
    <mxGraphModel dx="782" dy="1717" grid="1" gridSize="10" guides="1" tooltips="1" connect="1" arrows="1" fold="1" page="1" pageScale="1" pageWidth="827" pageHeight="1169" math="0" shadow="0">
      <root>
        <mxCell id="WIyWlLk6GJQsqaUBKTNV-0" />
        <mxCell id="WIyWlLk6GJQsqaUBKTNV-1" parent="WIyWlLk6GJQsqaUBKTNV-0" />
        <mxCell id="cHJcDGSqetA6E70wZRLV-188" style="edgeStyle=orthogonalEdgeStyle;curved=0;rounded=1;sketch=0;orthogonalLoop=1;jettySize=auto;html=1;strokeColor=#006658;fillColor=#21C0A5;fontColor=#5C5C5C;endArrow=ERmany;endFill=0;" edge="1" parent="WIyWlLk6GJQsqaUBKTNV-1" source="cHJcDGSqetA6E70wZRLV-10" target="cHJcDGSqetA6E70wZRLV-86">
          <mxGeometry relative="1" as="geometry" />
        </mxCell>
        <mxCell id="cHJcDGSqetA6E70wZRLV-10" value="&lt;font style=&quot;vertical-align: inherit&quot;&gt;&lt;font style=&quot;vertical-align: inherit&quot;&gt;Studenti&lt;/font&gt;&lt;/font&gt;" style="shape=table;html=1;whiteSpace=wrap;startSize=30;container=1;collapsible=0;childLayout=tableLayout;fixedRows=1;rowLines=0;fontStyle=1;align=center;fillColor=#21C0A5;strokeColor=#006658;fontColor=#5C5C5C;" vertex="1" parent="WIyWlLk6GJQsqaUBKTNV-1">
          <mxGeometry x="20" y="-45" width="180" height="155" as="geometry" />
        </mxCell>
        <mxCell id="cHJcDGSqetA6E70wZRLV-11" value="" style="shape=partialRectangle;html=1;whiteSpace=wrap;collapsible=0;dropTarget=0;pointerEvents=0;fillColor=none;top=0;left=0;bottom=1;right=0;points=[[0,0.5],[1,0.5]];portConstraint=eastwest;strokeColor=#006658;fontColor=#5C5C5C;" vertex="1" parent="cHJcDGSqetA6E70wZRLV-10">
          <mxGeometry y="30" width="180" height="30" as="geometry" />
        </mxCell>
        <mxCell id="cHJcDGSqetA6E70wZRLV-12" value="&lt;font style=&quot;vertical-align: inherit&quot;&gt;&lt;font style=&quot;vertical-align: inherit&quot;&gt;PK&lt;/font&gt;&lt;/font&gt;" style="shape=partialRectangle;html=1;whiteSpace=wrap;connectable=0;fillColor=none;top=0;left=0;bottom=0;right=0;overflow=hidden;strokeColor=#006658;fontColor=#5C5C5C;" vertex="1" parent="cHJcDGSqetA6E70wZRLV-11">
          <mxGeometry width="40" height="30" as="geometry" />
        </mxCell>
        <mxCell id="cHJcDGSqetA6E70wZRLV-13" value="&lt;font style=&quot;vertical-align: inherit&quot;&gt;&lt;font style=&quot;vertical-align: inherit&quot;&gt;&lt;font style=&quot;vertical-align: inherit&quot;&gt;&lt;font style=&quot;vertical-align: inherit&quot;&gt;&lt;font style=&quot;vertical-align: inherit&quot;&gt;&lt;font style=&quot;vertical-align: inherit&quot;&gt;Id_studente&lt;/font&gt;&lt;/font&gt;&lt;/font&gt;&lt;/font&gt;&lt;/font&gt;&lt;/font&gt;" style="shape=partialRectangle;html=1;whiteSpace=wrap;connectable=0;fillColor=none;top=0;left=0;bottom=0;right=0;align=left;spacingLeft=6;overflow=hidden;strokeColor=#006658;fontColor=#5C5C5C;" vertex="1" parent="cHJcDGSqetA6E70wZRLV-11">
          <mxGeometry x="40" width="140" height="30" as="geometry" />
        </mxCell>
        <mxCell id="cHJcDGSqetA6E70wZRLV-14" value="" style="shape=partialRectangle;html=1;whiteSpace=wrap;collapsible=0;dropTarget=0;pointerEvents=0;fillColor=none;top=0;left=0;bottom=0;right=0;points=[[0,0.5],[1,0.5]];portConstraint=eastwest;strokeColor=#006658;fontColor=#5C5C5C;" vertex="1" parent="cHJcDGSqetA6E70wZRLV-10">
          <mxGeometry y="60" width="180" height="65" as="geometry" />
        </mxCell>
        <mxCell id="cHJcDGSqetA6E70wZRLV-15" value="" style="shape=partialRectangle;html=1;whiteSpace=wrap;connectable=0;fillColor=none;top=0;left=0;bottom=0;right=0;overflow=hidden;strokeColor=#006658;fontColor=#5C5C5C;" vertex="1" parent="cHJcDGSqetA6E70wZRLV-14">
          <mxGeometry width="40" height="65" as="geometry" />
        </mxCell>
        <mxCell id="cHJcDGSqetA6E70wZRLV-16" value="&lt;font style=&quot;vertical-align: inherit&quot;&gt;&lt;font style=&quot;vertical-align: inherit&quot;&gt;&lt;font style=&quot;vertical-align: inherit&quot;&gt;&lt;font style=&quot;vertical-align: inherit&quot;&gt;codice_fiscale &lt;/font&gt;&lt;/font&gt;&lt;br&gt;&lt;font style=&quot;vertical-align: inherit&quot;&gt;&lt;font style=&quot;vertical-align: inherit&quot;&gt;nome &lt;/font&gt;&lt;/font&gt;&lt;br&gt;&lt;font style=&quot;vertical-align: inherit&quot;&gt;&lt;font style=&quot;vertical-align: inherit&quot;&gt;cognome&lt;br&gt;&lt;/font&gt;&lt;/font&gt;&lt;font style=&quot;vertical-align: inherit&quot;&gt;&lt;font style=&quot;vertical-align: inherit&quot;&gt;eta&lt;/font&gt;&lt;/font&gt;&lt;br&gt;&lt;/font&gt;&lt;/font&gt;" style="shape=partialRectangle;html=1;whiteSpace=wrap;connectable=0;fillColor=none;top=0;left=0;bottom=0;right=0;align=left;spacingLeft=6;overflow=hidden;strokeColor=#006658;fontColor=#5C5C5C;" vertex="1" parent="cHJcDGSqetA6E70wZRLV-14">
          <mxGeometry x="40" width="140" height="65" as="geometry" />
        </mxCell>
        <mxCell id="cHJcDGSqetA6E70wZRLV-17" value="" style="shape=partialRectangle;html=1;whiteSpace=wrap;collapsible=0;dropTarget=0;pointerEvents=0;fillColor=none;top=0;left=0;bottom=0;right=0;points=[[0,0.5],[1,0.5]];portConstraint=eastwest;strokeColor=#006658;fontColor=#5C5C5C;" vertex="1" parent="cHJcDGSqetA6E70wZRLV-10">
          <mxGeometry y="125" width="180" height="30" as="geometry" />
        </mxCell>
        <mxCell id="cHJcDGSqetA6E70wZRLV-18" value="" style="shape=partialRectangle;html=1;whiteSpace=wrap;connectable=0;fillColor=none;top=0;left=0;bottom=0;right=0;overflow=hidden;strokeColor=#006658;fontColor=#5C5C5C;" vertex="1" parent="cHJcDGSqetA6E70wZRLV-17">
          <mxGeometry width="40" height="30" as="geometry" />
        </mxCell>
        <mxCell id="cHJcDGSqetA6E70wZRLV-19" value="" style="shape=partialRectangle;html=1;whiteSpace=wrap;connectable=0;fillColor=none;top=0;left=0;bottom=0;right=0;align=left;spacingLeft=6;overflow=hidden;strokeColor=#006658;fontColor=#5C5C5C;" vertex="1" parent="cHJcDGSqetA6E70wZRLV-17">
          <mxGeometry x="40" width="140" height="30" as="geometry" />
        </mxCell>
        <mxCell id="cHJcDGSqetA6E70wZRLV-20" value="&lt;font style=&quot;vertical-align: inherit&quot;&gt;&lt;font style=&quot;vertical-align: inherit&quot;&gt;Base_dati&lt;/font&gt;&lt;/font&gt;" style="shape=table;html=1;whiteSpace=wrap;startSize=30;container=1;collapsible=0;childLayout=tableLayout;fixedRows=1;rowLines=0;fontStyle=1;align=center;fillColor=#21C0A5;strokeColor=#006658;fontColor=#5C5C5C;" vertex="1" parent="WIyWlLk6GJQsqaUBKTNV-1">
          <mxGeometry x="260" y="130" width="180" height="170" as="geometry" />
        </mxCell>
        <mxCell id="cHJcDGSqetA6E70wZRLV-21" value="" style="shape=partialRectangle;html=1;whiteSpace=wrap;collapsible=0;dropTarget=0;pointerEvents=0;fillColor=none;top=0;left=0;bottom=1;right=0;points=[[0,0.5],[1,0.5]];portConstraint=eastwest;strokeColor=#006658;fontColor=#5C5C5C;" vertex="1" parent="cHJcDGSqetA6E70wZRLV-20">
          <mxGeometry y="30" width="180" height="30" as="geometry" />
        </mxCell>
        <mxCell id="cHJcDGSqetA6E70wZRLV-22" value="&lt;font style=&quot;vertical-align: inherit&quot;&gt;&lt;font style=&quot;vertical-align: inherit&quot;&gt;PK&lt;/font&gt;&lt;/font&gt;" style="shape=partialRectangle;html=1;whiteSpace=wrap;connectable=0;fillColor=none;top=0;left=0;bottom=0;right=0;overflow=hidden;strokeColor=#006658;fontColor=#5C5C5C;" vertex="1" parent="cHJcDGSqetA6E70wZRLV-21">
          <mxGeometry width="40" height="30" as="geometry" />
        </mxCell>
        <mxCell id="cHJcDGSqetA6E70wZRLV-23" value="&lt;font style=&quot;vertical-align: inherit&quot;&gt;&lt;font style=&quot;vertical-align: inherit&quot;&gt;BaseDato&lt;/font&gt;&lt;/font&gt;" style="shape=partialRectangle;html=1;whiteSpace=wrap;connectable=0;fillColor=none;top=0;left=0;bottom=0;right=0;align=left;spacingLeft=6;overflow=hidden;strokeColor=#006658;fontColor=#5C5C5C;" vertex="1" parent="cHJcDGSqetA6E70wZRLV-21">
          <mxGeometry x="40" width="140" height="30" as="geometry" />
        </mxCell>
        <mxCell id="cHJcDGSqetA6E70wZRLV-24" value="" style="shape=partialRectangle;html=1;whiteSpace=wrap;collapsible=0;dropTarget=0;pointerEvents=0;fillColor=none;top=0;left=0;bottom=0;right=0;points=[[0,0.5],[1,0.5]];portConstraint=eastwest;strokeColor=#006658;fontColor=#5C5C5C;" vertex="1" parent="cHJcDGSqetA6E70wZRLV-20">
          <mxGeometry y="60" width="180" height="80" as="geometry" />
        </mxCell>
        <mxCell id="cHJcDGSqetA6E70wZRLV-25" value="" style="shape=partialRectangle;html=1;whiteSpace=wrap;connectable=0;fillColor=none;top=0;left=0;bottom=0;right=0;overflow=hidden;strokeColor=#006658;fontColor=#5C5C5C;" vertex="1" parent="cHJcDGSqetA6E70wZRLV-24">
          <mxGeometry width="40" height="80" as="geometry" />
        </mxCell>
        <mxCell id="cHJcDGSqetA6E70wZRLV-26" value="&lt;font style=&quot;vertical-align: inherit&quot;&gt;&lt;font style=&quot;vertical-align: inherit&quot;&gt;&lt;font style=&quot;vertical-align: inherit&quot;&gt;&lt;font style=&quot;vertical-align: inherit&quot;&gt;Storiescolastiche &lt;/font&gt;&lt;/font&gt;&lt;br&gt;&lt;font style=&quot;vertical-align: inherit&quot;&gt;&lt;font style=&quot;vertical-align: inherit&quot;&gt;classi_archiviate &lt;/font&gt;&lt;/font&gt;&lt;br&gt;&lt;font style=&quot;vertical-align: inherit&quot;&gt;&lt;font style=&quot;vertical-align: inherit&quot;&gt;&lt;br&gt;&lt;/font&gt;&lt;/font&gt;Id_alunno&lt;br&gt;&lt;/font&gt;&lt;/font&gt;" style="shape=partialRectangle;html=1;whiteSpace=wrap;connectable=0;fillColor=none;top=0;left=0;bottom=0;right=0;align=left;spacingLeft=6;overflow=hidden;strokeColor=#006658;fontColor=#5C5C5C;" vertex="1" parent="cHJcDGSqetA6E70wZRLV-24">
          <mxGeometry x="40" width="140" height="80" as="geometry" />
        </mxCell>
        <mxCell id="cHJcDGSqetA6E70wZRLV-27" value="" style="shape=partialRectangle;html=1;whiteSpace=wrap;collapsible=0;dropTarget=0;pointerEvents=0;fillColor=none;top=0;left=0;bottom=0;right=0;points=[[0,0.5],[1,0.5]];portConstraint=eastwest;strokeColor=#006658;fontColor=#5C5C5C;" vertex="1" parent="cHJcDGSqetA6E70wZRLV-20">
          <mxGeometry y="140" width="180" height="30" as="geometry" />
        </mxCell>
        <mxCell id="cHJcDGSqetA6E70wZRLV-28" value="" style="shape=partialRectangle;html=1;whiteSpace=wrap;connectable=0;fillColor=none;top=0;left=0;bottom=0;right=0;overflow=hidden;strokeColor=#006658;fontColor=#5C5C5C;" vertex="1" parent="cHJcDGSqetA6E70wZRLV-27">
          <mxGeometry width="40" height="30" as="geometry" />
        </mxCell>
        <mxCell id="cHJcDGSqetA6E70wZRLV-29" value="" style="shape=partialRectangle;html=1;whiteSpace=wrap;connectable=0;fillColor=none;top=0;left=0;bottom=0;right=0;align=left;spacingLeft=6;overflow=hidden;strokeColor=#006658;fontColor=#5C5C5C;" vertex="1" parent="cHJcDGSqetA6E70wZRLV-27">
          <mxGeometry x="40" width="140" height="30" as="geometry" />
        </mxCell>
        <mxCell id="cHJcDGSqetA6E70wZRLV-187" style="edgeStyle=orthogonalEdgeStyle;rounded=0;orthogonalLoop=1;jettySize=auto;html=1;entryX=0.794;entryY=0.008;entryDx=0;entryDy=0;entryPerimeter=0;endArrow=ERmany;endFill=0;strokeColor=#006658;fontColor=#5C5C5C;" edge="1" parent="WIyWlLk6GJQsqaUBKTNV-1" source="cHJcDGSqetA6E70wZRLV-30" target="cHJcDGSqetA6E70wZRLV-97">
          <mxGeometry relative="1" as="geometry" />
        </mxCell>
        <mxCell id="cHJcDGSqetA6E70wZRLV-30" value="&lt;font style=&quot;vertical-align: inherit&quot;&gt;&lt;font style=&quot;vertical-align: inherit&quot;&gt;Docenti&lt;/font&gt;&lt;/font&gt;" style="shape=table;html=1;whiteSpace=wrap;startSize=30;container=1;collapsible=0;childLayout=tableLayout;fixedRows=1;rowLines=0;fontStyle=1;align=center;fillColor=#21C0A5;strokeColor=#006658;fontColor=#5C5C5C;" vertex="1" parent="WIyWlLk6GJQsqaUBKTNV-1">
          <mxGeometry x="540" y="-55" width="180" height="175" as="geometry" />
        </mxCell>
        <mxCell id="cHJcDGSqetA6E70wZRLV-31" value="" style="shape=partialRectangle;html=1;whiteSpace=wrap;collapsible=0;dropTarget=0;pointerEvents=0;fillColor=none;top=0;left=0;bottom=1;right=0;points=[[0,0.5],[1,0.5]];portConstraint=eastwest;strokeColor=#006658;fontColor=#5C5C5C;" vertex="1" parent="cHJcDGSqetA6E70wZRLV-30">
          <mxGeometry y="30" width="180" height="30" as="geometry" />
        </mxCell>
        <mxCell id="cHJcDGSqetA6E70wZRLV-32" value="&lt;font style=&quot;vertical-align: inherit&quot;&gt;&lt;font style=&quot;vertical-align: inherit&quot;&gt;PK&lt;/font&gt;&lt;/font&gt;" style="shape=partialRectangle;html=1;whiteSpace=wrap;connectable=0;fillColor=none;top=0;left=0;bottom=0;right=0;overflow=hidden;strokeColor=#006658;fontColor=#5C5C5C;" vertex="1" parent="cHJcDGSqetA6E70wZRLV-31">
          <mxGeometry width="40" height="30" as="geometry" />
        </mxCell>
        <mxCell id="cHJcDGSqetA6E70wZRLV-33" value="&lt;font style=&quot;vertical-align: inherit&quot;&gt;&lt;font style=&quot;vertical-align: inherit&quot;&gt;Id_docente&lt;/font&gt;&lt;/font&gt;" style="shape=partialRectangle;html=1;whiteSpace=wrap;connectable=0;fillColor=none;top=0;left=0;bottom=0;right=0;align=left;spacingLeft=6;overflow=hidden;strokeColor=#006658;fontColor=#5C5C5C;" vertex="1" parent="cHJcDGSqetA6E70wZRLV-31">
          <mxGeometry x="40" width="140" height="30" as="geometry" />
        </mxCell>
        <mxCell id="cHJcDGSqetA6E70wZRLV-34" value="" style="shape=partialRectangle;html=1;whiteSpace=wrap;collapsible=0;dropTarget=0;pointerEvents=0;fillColor=none;top=0;left=0;bottom=0;right=0;points=[[0,0.5],[1,0.5]];portConstraint=eastwest;strokeColor=#006658;fontColor=#5C5C5C;" vertex="1" parent="cHJcDGSqetA6E70wZRLV-30">
          <mxGeometry y="60" width="180" height="85" as="geometry" />
        </mxCell>
        <mxCell id="cHJcDGSqetA6E70wZRLV-35" value="" style="shape=partialRectangle;html=1;whiteSpace=wrap;connectable=0;fillColor=none;top=0;left=0;bottom=0;right=0;overflow=hidden;strokeColor=#006658;fontColor=#5C5C5C;" vertex="1" parent="cHJcDGSqetA6E70wZRLV-34">
          <mxGeometry width="40" height="85" as="geometry" />
        </mxCell>
        <mxCell id="cHJcDGSqetA6E70wZRLV-36" value="&lt;font style=&quot;vertical-align: inherit&quot;&gt;&lt;font style=&quot;vertical-align: inherit&quot;&gt;&lt;font style=&quot;vertical-align: inherit&quot;&gt;&lt;font style=&quot;vertical-align: inherit&quot;&gt;&lt;font style=&quot;vertical-align: inherit&quot;&gt;&lt;font style=&quot;vertical-align: inherit&quot;&gt;nome &lt;/font&gt;&lt;/font&gt;&lt;br&gt;&lt;font style=&quot;vertical-align: inherit&quot;&gt;&lt;font style=&quot;vertical-align: inherit&quot;&gt;cognome &lt;/font&gt;&lt;/font&gt;&lt;br&gt;&lt;font style=&quot;vertical-align: inherit&quot;&gt;&lt;font style=&quot;vertical-align: inherit&quot;&gt;eta &lt;/font&gt;&lt;/font&gt;&lt;br&gt;&lt;font style=&quot;vertical-align: inherit&quot;&gt;&lt;font style=&quot;vertical-align: inherit&quot;&gt;ruolo &lt;/font&gt;&lt;/font&gt;&lt;/font&gt;&lt;/font&gt;&lt;br&gt;&lt;font style=&quot;vertical-align: inherit&quot;&gt;&lt;font style=&quot;vertical-align: inherit&quot;&gt;&lt;font style=&quot;vertical-align: inherit&quot;&gt;&lt;font style=&quot;vertical-align: inherit&quot;&gt;supplente&lt;br&gt;specializzazione&amp;nbsp;&amp;nbsp;&lt;/font&gt;&lt;/font&gt;&lt;/font&gt;&lt;/font&gt;&lt;br&gt;&lt;br&gt;&lt;/font&gt;&lt;/font&gt;" style="shape=partialRectangle;html=1;whiteSpace=wrap;connectable=0;fillColor=none;top=0;left=0;bottom=0;right=0;align=left;spacingLeft=6;overflow=hidden;strokeColor=#006658;fontColor=#5C5C5C;" vertex="1" parent="cHJcDGSqetA6E70wZRLV-34">
          <mxGeometry x="40" width="140" height="85" as="geometry" />
        </mxCell>
        <mxCell id="cHJcDGSqetA6E70wZRLV-37" value="" style="shape=partialRectangle;html=1;whiteSpace=wrap;collapsible=0;dropTarget=0;pointerEvents=0;fillColor=none;top=0;left=0;bottom=0;right=0;points=[[0,0.5],[1,0.5]];portConstraint=eastwest;strokeColor=#006658;fontColor=#5C5C5C;" vertex="1" parent="cHJcDGSqetA6E70wZRLV-30">
          <mxGeometry y="145" width="180" height="30" as="geometry" />
        </mxCell>
        <mxCell id="cHJcDGSqetA6E70wZRLV-38" value="" style="shape=partialRectangle;html=1;whiteSpace=wrap;connectable=0;fillColor=none;top=0;left=0;bottom=0;right=0;overflow=hidden;strokeColor=#006658;fontColor=#5C5C5C;" vertex="1" parent="cHJcDGSqetA6E70wZRLV-37">
          <mxGeometry width="40" height="30" as="geometry" />
        </mxCell>
        <mxCell id="cHJcDGSqetA6E70wZRLV-39" value="" style="shape=partialRectangle;html=1;whiteSpace=wrap;connectable=0;fillColor=none;top=0;left=0;bottom=0;right=0;align=left;spacingLeft=6;overflow=hidden;strokeColor=#006658;fontColor=#5C5C5C;" vertex="1" parent="cHJcDGSqetA6E70wZRLV-37">
          <mxGeometry x="40" width="140" height="30" as="geometry" />
        </mxCell>
        <mxCell id="cHJcDGSqetA6E70wZRLV-40" value="&lt;font style=&quot;vertical-align: inherit&quot;&gt;&lt;font style=&quot;vertical-align: inherit&quot;&gt;Locali&lt;/font&gt;&lt;/font&gt;" style="shape=table;html=1;whiteSpace=wrap;startSize=30;container=1;collapsible=0;childLayout=tableLayout;fixedRows=1;rowLines=0;fontStyle=1;align=center;fillColor=#21C0A5;strokeColor=#006658;fontColor=#5C5C5C;" vertex="1" parent="WIyWlLk6GJQsqaUBKTNV-1">
          <mxGeometry x="250" y="380" width="180" height="160" as="geometry" />
        </mxCell>
        <mxCell id="cHJcDGSqetA6E70wZRLV-41" value="" style="shape=partialRectangle;html=1;whiteSpace=wrap;collapsible=0;dropTarget=0;pointerEvents=0;fillColor=none;top=0;left=0;bottom=1;right=0;points=[[0,0.5],[1,0.5]];portConstraint=eastwest;strokeColor=#006658;fontColor=#5C5C5C;" vertex="1" parent="cHJcDGSqetA6E70wZRLV-40">
          <mxGeometry y="30" width="180" height="30" as="geometry" />
        </mxCell>
        <mxCell id="cHJcDGSqetA6E70wZRLV-42" value="&lt;font style=&quot;vertical-align: inherit&quot;&gt;&lt;font style=&quot;vertical-align: inherit&quot;&gt;Pk&lt;/font&gt;&lt;/font&gt;" style="shape=partialRectangle;html=1;whiteSpace=wrap;connectable=0;fillColor=none;top=0;left=0;bottom=0;right=0;overflow=hidden;strokeColor=#006658;fontColor=#5C5C5C;" vertex="1" parent="cHJcDGSqetA6E70wZRLV-41">
          <mxGeometry width="40" height="30" as="geometry" />
        </mxCell>
        <mxCell id="cHJcDGSqetA6E70wZRLV-43" value="&lt;font style=&quot;vertical-align: inherit&quot;&gt;&lt;font style=&quot;vertical-align: inherit&quot;&gt;&lt;font style=&quot;vertical-align: inherit&quot;&gt;&lt;font style=&quot;vertical-align: inherit&quot;&gt;Id_locale&lt;/font&gt;&lt;/font&gt;&lt;/font&gt;&lt;/font&gt;" style="shape=partialRectangle;html=1;whiteSpace=wrap;connectable=0;fillColor=none;top=0;left=0;bottom=0;right=0;align=left;spacingLeft=6;overflow=hidden;strokeColor=#006658;fontColor=#5C5C5C;" vertex="1" parent="cHJcDGSqetA6E70wZRLV-41">
          <mxGeometry x="40" width="140" height="30" as="geometry" />
        </mxCell>
        <mxCell id="cHJcDGSqetA6E70wZRLV-44" value="" style="shape=partialRectangle;html=1;whiteSpace=wrap;collapsible=0;dropTarget=0;pointerEvents=0;fillColor=none;top=0;left=0;bottom=0;right=0;points=[[0,0.5],[1,0.5]];portConstraint=eastwest;strokeColor=#006658;fontColor=#5C5C5C;" vertex="1" parent="cHJcDGSqetA6E70wZRLV-40">
          <mxGeometry y="60" width="180" height="50" as="geometry" />
        </mxCell>
        <mxCell id="cHJcDGSqetA6E70wZRLV-45" value="" style="shape=partialRectangle;html=1;whiteSpace=wrap;connectable=0;fillColor=none;top=0;left=0;bottom=0;right=0;overflow=hidden;strokeColor=#006658;fontColor=#5C5C5C;" vertex="1" parent="cHJcDGSqetA6E70wZRLV-44">
          <mxGeometry width="40" height="50" as="geometry" />
        </mxCell>
        <mxCell id="cHJcDGSqetA6E70wZRLV-46" value="&lt;font style=&quot;vertical-align: inherit&quot;&gt;&lt;font style=&quot;vertical-align: inherit&quot;&gt;&lt;font style=&quot;vertical-align: inherit&quot;&gt;&lt;font style=&quot;vertical-align: inherit&quot;&gt;&lt;font style=&quot;vertical-align: inherit&quot;&gt;&lt;font style=&quot;vertical-align: inherit&quot;&gt;laboratori &lt;/font&gt;&lt;/font&gt;&lt;/font&gt;&lt;/font&gt;&lt;br&gt;&lt;font style=&quot;vertical-align: inherit&quot;&gt;&lt;font style=&quot;vertical-align: inherit&quot;&gt;&lt;font style=&quot;vertical-align: inherit&quot;&gt;&lt;font style=&quot;vertical-align: inherit&quot;&gt;uffici &lt;/font&gt;&lt;/font&gt;&lt;/font&gt;&lt;/font&gt;&lt;br&gt;&lt;font style=&quot;vertical-align: inherit&quot;&gt;&lt;font style=&quot;vertical-align: inherit&quot;&gt;n_locale&lt;br&gt;&lt;/font&gt;&lt;/font&gt;&lt;br&gt;&lt;/font&gt;&lt;/font&gt;" style="shape=partialRectangle;html=1;whiteSpace=wrap;connectable=0;fillColor=none;top=0;left=0;bottom=0;right=0;align=left;spacingLeft=6;overflow=hidden;strokeColor=#006658;fontColor=#5C5C5C;" vertex="1" parent="cHJcDGSqetA6E70wZRLV-44">
          <mxGeometry x="40" width="140" height="50" as="geometry" />
        </mxCell>
        <mxCell id="cHJcDGSqetA6E70wZRLV-47" value="" style="shape=partialRectangle;html=1;whiteSpace=wrap;collapsible=0;dropTarget=0;pointerEvents=0;fillColor=none;top=0;left=0;bottom=0;right=0;points=[[0,0.5],[1,0.5]];portConstraint=eastwest;strokeColor=#006658;fontColor=#5C5C5C;" vertex="1" parent="cHJcDGSqetA6E70wZRLV-40">
          <mxGeometry y="110" width="180" height="30" as="geometry" />
        </mxCell>
        <mxCell id="cHJcDGSqetA6E70wZRLV-48" value="" style="shape=partialRectangle;html=1;whiteSpace=wrap;connectable=0;fillColor=none;top=0;left=0;bottom=0;right=0;overflow=hidden;strokeColor=#006658;fontColor=#5C5C5C;" vertex="1" parent="cHJcDGSqetA6E70wZRLV-47">
          <mxGeometry width="40" height="30" as="geometry" />
        </mxCell>
        <mxCell id="cHJcDGSqetA6E70wZRLV-49" value="" style="shape=partialRectangle;html=1;whiteSpace=wrap;connectable=0;fillColor=none;top=0;left=0;bottom=0;right=0;align=left;spacingLeft=6;overflow=hidden;strokeColor=#006658;fontColor=#5C5C5C;" vertex="1" parent="cHJcDGSqetA6E70wZRLV-47">
          <mxGeometry x="40" width="140" height="30" as="geometry" />
        </mxCell>
        <mxCell id="cHJcDGSqetA6E70wZRLV-83" value="" style="shape=partialRectangle;html=1;whiteSpace=wrap;collapsible=0;dropTarget=0;pointerEvents=0;fillColor=none;top=0;left=0;bottom=0;right=0;points=[[0,0.5],[1,0.5]];portConstraint=eastwest;strokeColor=#006658;fontColor=#5C5C5C;" vertex="1" parent="cHJcDGSqetA6E70wZRLV-40">
          <mxGeometry y="140" width="180" height="20" as="geometry" />
        </mxCell>
        <mxCell id="cHJcDGSqetA6E70wZRLV-84" value="" style="shape=partialRectangle;html=1;whiteSpace=wrap;connectable=0;fillColor=none;top=0;left=0;bottom=0;right=0;overflow=hidden;strokeColor=#006658;fontColor=#5C5C5C;" vertex="1" parent="cHJcDGSqetA6E70wZRLV-83">
          <mxGeometry width="40" height="20" as="geometry" />
        </mxCell>
        <mxCell id="cHJcDGSqetA6E70wZRLV-85" value="" style="shape=partialRectangle;html=1;whiteSpace=wrap;connectable=0;fillColor=none;top=0;left=0;bottom=0;right=0;align=left;spacingLeft=6;overflow=hidden;strokeColor=#006658;fontColor=#5C5C5C;" vertex="1" parent="cHJcDGSqetA6E70wZRLV-83">
          <mxGeometry x="40" width="140" height="20" as="geometry" />
        </mxCell>
        <mxCell id="cHJcDGSqetA6E70wZRLV-185" style="edgeStyle=orthogonalEdgeStyle;rounded=0;orthogonalLoop=1;jettySize=auto;html=1;entryX=1;entryY=0.277;entryDx=0;entryDy=0;entryPerimeter=0;endArrow=ERmany;endFill=0;strokeColor=#006658;fontColor=#5C5C5C;" edge="1" parent="WIyWlLk6GJQsqaUBKTNV-1" source="cHJcDGSqetA6E70wZRLV-73" target="cHJcDGSqetA6E70wZRLV-14">
          <mxGeometry relative="1" as="geometry" />
        </mxCell>
        <mxCell id="cHJcDGSqetA6E70wZRLV-73" value="&lt;font style=&quot;vertical-align: inherit&quot;&gt;&lt;font style=&quot;vertical-align: inherit&quot;&gt;Classe&lt;/font&gt;&lt;/font&gt;" style="shape=table;html=1;whiteSpace=wrap;startSize=30;container=1;collapsible=0;childLayout=tableLayout;fixedRows=1;rowLines=0;fontStyle=1;align=center;fillColor=#21C0A5;strokeColor=#006658;fontColor=#5C5C5C;" vertex="1" parent="WIyWlLk6GJQsqaUBKTNV-1">
          <mxGeometry x="270" y="-120" width="190" height="150" as="geometry" />
        </mxCell>
        <mxCell id="cHJcDGSqetA6E70wZRLV-74" value="" style="shape=partialRectangle;html=1;whiteSpace=wrap;collapsible=0;dropTarget=0;pointerEvents=0;fillColor=none;top=0;left=0;bottom=1;right=0;points=[[0,0.5],[1,0.5]];portConstraint=eastwest;strokeColor=#006658;fontColor=#5C5C5C;" vertex="1" parent="cHJcDGSqetA6E70wZRLV-73">
          <mxGeometry y="30" width="190" height="40" as="geometry" />
        </mxCell>
        <mxCell id="cHJcDGSqetA6E70wZRLV-75" value="&lt;font style=&quot;vertical-align: inherit&quot;&gt;&lt;font style=&quot;vertical-align: inherit&quot;&gt;PK&lt;/font&gt;&lt;/font&gt;" style="shape=partialRectangle;html=1;whiteSpace=wrap;connectable=0;fillColor=none;top=0;left=0;bottom=0;right=0;overflow=hidden;strokeColor=#006658;fontColor=#5C5C5C;" vertex="1" parent="cHJcDGSqetA6E70wZRLV-74">
          <mxGeometry width="42" height="40" as="geometry" />
        </mxCell>
        <mxCell id="cHJcDGSqetA6E70wZRLV-76" value="&lt;font style=&quot;vertical-align: inherit&quot;&gt;&lt;font style=&quot;vertical-align: inherit&quot;&gt;Id_classe&lt;/font&gt;&lt;/font&gt;" style="shape=partialRectangle;html=1;whiteSpace=wrap;connectable=0;fillColor=none;top=0;left=0;bottom=0;right=0;align=left;spacingLeft=6;overflow=hidden;strokeColor=#006658;fontColor=#5C5C5C;" vertex="1" parent="cHJcDGSqetA6E70wZRLV-74">
          <mxGeometry x="42" width="148" height="40" as="geometry" />
        </mxCell>
        <mxCell id="cHJcDGSqetA6E70wZRLV-77" value="" style="shape=partialRectangle;html=1;whiteSpace=wrap;collapsible=0;dropTarget=0;pointerEvents=0;fillColor=none;top=0;left=0;bottom=0;right=0;points=[[0,0.5],[1,0.5]];portConstraint=eastwest;strokeColor=#006658;fontColor=#5C5C5C;" vertex="1" parent="cHJcDGSqetA6E70wZRLV-73">
          <mxGeometry y="70" width="190" height="50" as="geometry" />
        </mxCell>
        <mxCell id="cHJcDGSqetA6E70wZRLV-78" value="" style="shape=partialRectangle;html=1;whiteSpace=wrap;connectable=0;fillColor=none;top=0;left=0;bottom=0;right=0;overflow=hidden;strokeColor=#006658;fontColor=#5C5C5C;" vertex="1" parent="cHJcDGSqetA6E70wZRLV-77">
          <mxGeometry width="42" height="50" as="geometry" />
        </mxCell>
        <mxCell id="cHJcDGSqetA6E70wZRLV-79" value="&lt;font style=&quot;vertical-align: inherit&quot;&gt;&lt;font style=&quot;vertical-align: inherit&quot;&gt;&lt;font style=&quot;vertical-align: inherit&quot;&gt;&lt;font style=&quot;vertical-align: inherit&quot;&gt;n_alunni&lt;br&gt;nome&amp;nbsp;&lt;/font&gt;&lt;/font&gt;&lt;br&gt;&lt;font style=&quot;vertical-align: inherit&quot;&gt;&lt;font style=&quot;vertical-align: inherit&quot;&gt;n_aula&lt;/font&gt;&lt;/font&gt;&lt;br&gt;&lt;/font&gt;&lt;/font&gt;" style="shape=partialRectangle;html=1;whiteSpace=wrap;connectable=0;fillColor=none;top=0;left=0;bottom=0;right=0;align=left;spacingLeft=6;overflow=hidden;strokeColor=#006658;fontColor=#5C5C5C;" vertex="1" parent="cHJcDGSqetA6E70wZRLV-77">
          <mxGeometry x="42" width="148" height="50" as="geometry" />
        </mxCell>
        <mxCell id="cHJcDGSqetA6E70wZRLV-80" value="" style="shape=partialRectangle;html=1;whiteSpace=wrap;collapsible=0;dropTarget=0;pointerEvents=0;fillColor=none;top=0;left=0;bottom=0;right=0;points=[[0,0.5],[1,0.5]];portConstraint=eastwest;strokeColor=#006658;fontColor=#5C5C5C;" vertex="1" parent="cHJcDGSqetA6E70wZRLV-73">
          <mxGeometry y="120" width="190" height="30" as="geometry" />
        </mxCell>
        <mxCell id="cHJcDGSqetA6E70wZRLV-81" value="" style="shape=partialRectangle;html=1;whiteSpace=wrap;connectable=0;fillColor=none;top=0;left=0;bottom=0;right=0;overflow=hidden;strokeColor=#006658;fontColor=#5C5C5C;" vertex="1" parent="cHJcDGSqetA6E70wZRLV-80">
          <mxGeometry width="42" height="30" as="geometry" />
        </mxCell>
        <mxCell id="cHJcDGSqetA6E70wZRLV-82" value="" style="shape=partialRectangle;html=1;whiteSpace=wrap;connectable=0;fillColor=none;top=0;left=0;bottom=0;right=0;align=left;spacingLeft=6;overflow=hidden;strokeColor=#006658;fontColor=#5C5C5C;" vertex="1" parent="cHJcDGSqetA6E70wZRLV-80">
          <mxGeometry x="42" width="148" height="30" as="geometry" />
        </mxCell>
        <mxCell id="cHJcDGSqetA6E70wZRLV-189" style="edgeStyle=orthogonalEdgeStyle;curved=0;rounded=1;sketch=0;orthogonalLoop=1;jettySize=auto;html=1;entryX=0.394;entryY=0;entryDx=0;entryDy=0;entryPerimeter=0;endArrow=ERmany;endFill=0;strokeColor=#006658;fillColor=#21C0A5;fontColor=#5C5C5C;" edge="1" parent="WIyWlLk6GJQsqaUBKTNV-1" source="cHJcDGSqetA6E70wZRLV-86" target="cHJcDGSqetA6E70wZRLV-107">
          <mxGeometry relative="1" as="geometry" />
        </mxCell>
        <mxCell id="cHJcDGSqetA6E70wZRLV-86" value="&lt;font style=&quot;vertical-align: inherit&quot;&gt;&lt;font style=&quot;vertical-align: inherit&quot;&gt;Risulato_finale&lt;/font&gt;&lt;/font&gt;" style="shape=table;html=1;whiteSpace=wrap;startSize=30;container=1;collapsible=0;childLayout=tableLayout;fixedRows=1;rowLines=0;fontStyle=1;align=center;fillColor=#21C0A5;strokeColor=#006658;fontColor=#5C5C5C;" vertex="1" parent="WIyWlLk6GJQsqaUBKTNV-1">
          <mxGeometry x="10" y="190" width="180" height="140" as="geometry" />
        </mxCell>
        <mxCell id="cHJcDGSqetA6E70wZRLV-87" value="" style="shape=partialRectangle;html=1;whiteSpace=wrap;collapsible=0;dropTarget=0;pointerEvents=0;fillColor=none;top=0;left=0;bottom=1;right=0;points=[[0,0.5],[1,0.5]];portConstraint=eastwest;strokeColor=#006658;fontColor=#5C5C5C;" vertex="1" parent="cHJcDGSqetA6E70wZRLV-86">
          <mxGeometry y="30" width="180" height="30" as="geometry" />
        </mxCell>
        <mxCell id="cHJcDGSqetA6E70wZRLV-88" value="&lt;font style=&quot;vertical-align: inherit&quot;&gt;&lt;font style=&quot;vertical-align: inherit&quot;&gt;PK&lt;/font&gt;&lt;/font&gt;" style="shape=partialRectangle;html=1;whiteSpace=wrap;connectable=0;fillColor=none;top=0;left=0;bottom=0;right=0;overflow=hidden;strokeColor=#006658;fontColor=#5C5C5C;" vertex="1" parent="cHJcDGSqetA6E70wZRLV-87">
          <mxGeometry width="40" height="30" as="geometry" />
        </mxCell>
        <mxCell id="cHJcDGSqetA6E70wZRLV-89" value="&lt;font style=&quot;vertical-align: inherit&quot;&gt;&lt;font style=&quot;vertical-align: inherit&quot;&gt;Id_risultato&lt;/font&gt;&lt;/font&gt;" style="shape=partialRectangle;html=1;whiteSpace=wrap;connectable=0;fillColor=none;top=0;left=0;bottom=0;right=0;align=left;spacingLeft=6;overflow=hidden;strokeColor=#006658;fontColor=#5C5C5C;" vertex="1" parent="cHJcDGSqetA6E70wZRLV-87">
          <mxGeometry x="40" width="140" height="30" as="geometry" />
        </mxCell>
        <mxCell id="cHJcDGSqetA6E70wZRLV-90" value="" style="shape=partialRectangle;html=1;whiteSpace=wrap;collapsible=0;dropTarget=0;pointerEvents=0;fillColor=none;top=0;left=0;bottom=0;right=0;points=[[0,0.5],[1,0.5]];portConstraint=eastwest;strokeColor=#006658;fontColor=#5C5C5C;" vertex="1" parent="cHJcDGSqetA6E70wZRLV-86">
          <mxGeometry y="60" width="180" height="50" as="geometry" />
        </mxCell>
        <mxCell id="cHJcDGSqetA6E70wZRLV-91" value="" style="shape=partialRectangle;html=1;whiteSpace=wrap;connectable=0;fillColor=none;top=0;left=0;bottom=0;right=0;overflow=hidden;strokeColor=#006658;fontColor=#5C5C5C;" vertex="1" parent="cHJcDGSqetA6E70wZRLV-90">
          <mxGeometry width="40" height="50" as="geometry" />
        </mxCell>
        <mxCell id="cHJcDGSqetA6E70wZRLV-92" value="&lt;font style=&quot;vertical-align: inherit&quot;&gt;&lt;font style=&quot;vertical-align: inherit&quot;&gt;voto&lt;br&gt;anno&lt;br&gt;&lt;/font&gt;&lt;/font&gt;" style="shape=partialRectangle;html=1;whiteSpace=wrap;connectable=0;fillColor=none;top=0;left=0;bottom=0;right=0;align=left;spacingLeft=6;overflow=hidden;strokeColor=#006658;fontColor=#5C5C5C;" vertex="1" parent="cHJcDGSqetA6E70wZRLV-90">
          <mxGeometry x="40" width="140" height="50" as="geometry" />
        </mxCell>
        <mxCell id="cHJcDGSqetA6E70wZRLV-93" value="" style="shape=partialRectangle;html=1;whiteSpace=wrap;collapsible=0;dropTarget=0;pointerEvents=0;fillColor=none;top=0;left=0;bottom=0;right=0;points=[[0,0.5],[1,0.5]];portConstraint=eastwest;strokeColor=#006658;fontColor=#5C5C5C;" vertex="1" parent="cHJcDGSqetA6E70wZRLV-86">
          <mxGeometry y="110" width="180" height="30" as="geometry" />
        </mxCell>
        <mxCell id="cHJcDGSqetA6E70wZRLV-94" value="" style="shape=partialRectangle;html=1;whiteSpace=wrap;connectable=0;fillColor=none;top=0;left=0;bottom=0;right=0;overflow=hidden;strokeColor=#006658;fontColor=#5C5C5C;" vertex="1" parent="cHJcDGSqetA6E70wZRLV-93">
          <mxGeometry width="40" height="30" as="geometry" />
        </mxCell>
        <mxCell id="cHJcDGSqetA6E70wZRLV-95" value="" style="shape=partialRectangle;html=1;whiteSpace=wrap;connectable=0;fillColor=none;top=0;left=0;bottom=0;right=0;align=left;spacingLeft=6;overflow=hidden;strokeColor=#006658;fontColor=#5C5C5C;" vertex="1" parent="cHJcDGSqetA6E70wZRLV-93">
          <mxGeometry x="40" width="140" height="30" as="geometry" />
        </mxCell>
        <mxCell id="cHJcDGSqetA6E70wZRLV-97" value="&lt;font style=&quot;vertical-align: inherit&quot;&gt;&lt;font style=&quot;vertical-align: inherit&quot;&gt;Corsi&lt;/font&gt;&lt;/font&gt;" style="shape=table;html=1;whiteSpace=wrap;startSize=30;container=1;collapsible=0;childLayout=tableLayout;fixedRows=1;rowLines=0;fontStyle=1;align=center;fillColor=#21C0A5;strokeColor=#006658;fontColor=#5C5C5C;" vertex="1" parent="WIyWlLk6GJQsqaUBKTNV-1">
          <mxGeometry x="540" y="180" width="180" height="120" as="geometry" />
        </mxCell>
        <mxCell id="cHJcDGSqetA6E70wZRLV-98" value="" style="shape=partialRectangle;html=1;whiteSpace=wrap;collapsible=0;dropTarget=0;pointerEvents=0;fillColor=none;top=0;left=0;bottom=1;right=0;points=[[0,0.5],[1,0.5]];portConstraint=eastwest;strokeColor=#006658;fontColor=#5C5C5C;" vertex="1" parent="cHJcDGSqetA6E70wZRLV-97">
          <mxGeometry y="30" width="180" height="30" as="geometry" />
        </mxCell>
        <mxCell id="cHJcDGSqetA6E70wZRLV-99" value="&lt;font style=&quot;vertical-align: inherit&quot;&gt;&lt;font style=&quot;vertical-align: inherit&quot;&gt;PK&lt;/font&gt;&lt;/font&gt;" style="shape=partialRectangle;html=1;whiteSpace=wrap;connectable=0;fillColor=none;top=0;left=0;bottom=0;right=0;overflow=hidden;strokeColor=#006658;fontColor=#5C5C5C;" vertex="1" parent="cHJcDGSqetA6E70wZRLV-98">
          <mxGeometry width="40" height="30" as="geometry" />
        </mxCell>
        <mxCell id="cHJcDGSqetA6E70wZRLV-100" value="&lt;font style=&quot;vertical-align: inherit&quot;&gt;&lt;font style=&quot;vertical-align: inherit&quot;&gt;Id_corso&lt;/font&gt;&lt;/font&gt;" style="shape=partialRectangle;html=1;whiteSpace=wrap;connectable=0;fillColor=none;top=0;left=0;bottom=0;right=0;align=left;spacingLeft=6;overflow=hidden;strokeColor=#006658;fontColor=#5C5C5C;" vertex="1" parent="cHJcDGSqetA6E70wZRLV-98">
          <mxGeometry x="40" width="140" height="30" as="geometry" />
        </mxCell>
        <mxCell id="cHJcDGSqetA6E70wZRLV-101" value="" style="shape=partialRectangle;html=1;whiteSpace=wrap;collapsible=0;dropTarget=0;pointerEvents=0;fillColor=none;top=0;left=0;bottom=0;right=0;points=[[0,0.5],[1,0.5]];portConstraint=eastwest;strokeColor=#006658;fontColor=#5C5C5C;" vertex="1" parent="cHJcDGSqetA6E70wZRLV-97">
          <mxGeometry y="60" width="180" height="30" as="geometry" />
        </mxCell>
        <mxCell id="cHJcDGSqetA6E70wZRLV-102" value="" style="shape=partialRectangle;html=1;whiteSpace=wrap;connectable=0;fillColor=none;top=0;left=0;bottom=0;right=0;overflow=hidden;strokeColor=#006658;fontColor=#5C5C5C;" vertex="1" parent="cHJcDGSqetA6E70wZRLV-101">
          <mxGeometry width="40" height="30" as="geometry" />
        </mxCell>
        <mxCell id="cHJcDGSqetA6E70wZRLV-103" value="&lt;font style=&quot;vertical-align: inherit&quot;&gt;&lt;font style=&quot;vertical-align: inherit&quot;&gt;nome&lt;br&gt;anno&lt;br&gt;&lt;/font&gt;&lt;/font&gt;" style="shape=partialRectangle;html=1;whiteSpace=wrap;connectable=0;fillColor=none;top=0;left=0;bottom=0;right=0;align=left;spacingLeft=6;overflow=hidden;strokeColor=#006658;fontColor=#5C5C5C;" vertex="1" parent="cHJcDGSqetA6E70wZRLV-101">
          <mxGeometry x="40" width="140" height="30" as="geometry" />
        </mxCell>
        <mxCell id="cHJcDGSqetA6E70wZRLV-104" value="" style="shape=partialRectangle;html=1;whiteSpace=wrap;collapsible=0;dropTarget=0;pointerEvents=0;fillColor=none;top=0;left=0;bottom=0;right=0;points=[[0,0.5],[1,0.5]];portConstraint=eastwest;strokeColor=#006658;fontColor=#5C5C5C;" vertex="1" parent="cHJcDGSqetA6E70wZRLV-97">
          <mxGeometry y="90" width="180" height="30" as="geometry" />
        </mxCell>
        <mxCell id="cHJcDGSqetA6E70wZRLV-105" value="" style="shape=partialRectangle;html=1;whiteSpace=wrap;connectable=0;fillColor=none;top=0;left=0;bottom=0;right=0;overflow=hidden;strokeColor=#006658;fontColor=#5C5C5C;" vertex="1" parent="cHJcDGSqetA6E70wZRLV-104">
          <mxGeometry width="40" height="30" as="geometry" />
        </mxCell>
        <mxCell id="cHJcDGSqetA6E70wZRLV-106" value="" style="shape=partialRectangle;html=1;whiteSpace=wrap;connectable=0;fillColor=none;top=0;left=0;bottom=0;right=0;align=left;spacingLeft=6;overflow=hidden;strokeColor=#006658;fontColor=#5C5C5C;" vertex="1" parent="cHJcDGSqetA6E70wZRLV-104">
          <mxGeometry x="40" width="140" height="30" as="geometry" />
        </mxCell>
        <mxCell id="cHJcDGSqetA6E70wZRLV-107" value="&lt;font style=&quot;vertical-align: inherit&quot;&gt;&lt;font style=&quot;vertical-align: inherit&quot;&gt;Materie&lt;/font&gt;&lt;/font&gt;" style="shape=table;html=1;whiteSpace=wrap;startSize=30;container=1;collapsible=0;childLayout=tableLayout;fixedRows=1;rowLines=0;fontStyle=1;align=center;fillColor=#21C0A5;strokeColor=#006658;fontColor=#5C5C5C;" vertex="1" parent="WIyWlLk6GJQsqaUBKTNV-1">
          <mxGeometry x="10" y="390" width="180" height="120" as="geometry" />
        </mxCell>
        <mxCell id="cHJcDGSqetA6E70wZRLV-108" value="" style="shape=partialRectangle;html=1;whiteSpace=wrap;collapsible=0;dropTarget=0;pointerEvents=0;fillColor=none;top=0;left=0;bottom=1;right=0;points=[[0,0.5],[1,0.5]];portConstraint=eastwest;strokeColor=#006658;fontColor=#5C5C5C;" vertex="1" parent="cHJcDGSqetA6E70wZRLV-107">
          <mxGeometry y="30" width="180" height="30" as="geometry" />
        </mxCell>
        <mxCell id="cHJcDGSqetA6E70wZRLV-109" value="&lt;font style=&quot;vertical-align: inherit&quot;&gt;&lt;font style=&quot;vertical-align: inherit&quot;&gt;PK&lt;/font&gt;&lt;/font&gt;" style="shape=partialRectangle;html=1;whiteSpace=wrap;connectable=0;fillColor=none;top=0;left=0;bottom=0;right=0;overflow=hidden;strokeColor=#006658;fontColor=#5C5C5C;" vertex="1" parent="cHJcDGSqetA6E70wZRLV-108">
          <mxGeometry width="40" height="30" as="geometry" />
        </mxCell>
        <mxCell id="cHJcDGSqetA6E70wZRLV-110" value="&lt;font style=&quot;vertical-align: inherit&quot;&gt;&lt;font style=&quot;vertical-align: inherit&quot;&gt;Id_materia&lt;/font&gt;&lt;/font&gt;" style="shape=partialRectangle;html=1;whiteSpace=wrap;connectable=0;fillColor=none;top=0;left=0;bottom=0;right=0;align=left;spacingLeft=6;overflow=hidden;strokeColor=#006658;fontColor=#5C5C5C;" vertex="1" parent="cHJcDGSqetA6E70wZRLV-108">
          <mxGeometry x="40" width="140" height="30" as="geometry" />
        </mxCell>
        <mxCell id="cHJcDGSqetA6E70wZRLV-111" value="" style="shape=partialRectangle;html=1;whiteSpace=wrap;collapsible=0;dropTarget=0;pointerEvents=0;fillColor=none;top=0;left=0;bottom=0;right=0;points=[[0,0.5],[1,0.5]];portConstraint=eastwest;strokeColor=#006658;fontColor=#5C5C5C;" vertex="1" parent="cHJcDGSqetA6E70wZRLV-107">
          <mxGeometry y="60" width="180" height="30" as="geometry" />
        </mxCell>
        <mxCell id="cHJcDGSqetA6E70wZRLV-112" value="" style="shape=partialRectangle;html=1;whiteSpace=wrap;connectable=0;fillColor=none;top=0;left=0;bottom=0;right=0;overflow=hidden;strokeColor=#006658;fontColor=#5C5C5C;" vertex="1" parent="cHJcDGSqetA6E70wZRLV-111">
          <mxGeometry width="40" height="30" as="geometry" />
        </mxCell>
        <mxCell id="cHJcDGSqetA6E70wZRLV-113" value="&lt;font style=&quot;vertical-align: inherit&quot;&gt;&lt;font style=&quot;vertical-align: inherit&quot;&gt;nome&lt;/font&gt;&lt;/font&gt;" style="shape=partialRectangle;html=1;whiteSpace=wrap;connectable=0;fillColor=none;top=0;left=0;bottom=0;right=0;align=left;spacingLeft=6;overflow=hidden;strokeColor=#006658;fontColor=#5C5C5C;" vertex="1" parent="cHJcDGSqetA6E70wZRLV-111">
          <mxGeometry x="40" width="140" height="30" as="geometry" />
        </mxCell>
        <mxCell id="cHJcDGSqetA6E70wZRLV-114" value="" style="shape=partialRectangle;html=1;whiteSpace=wrap;collapsible=0;dropTarget=0;pointerEvents=0;fillColor=none;top=0;left=0;bottom=0;right=0;points=[[0,0.5],[1,0.5]];portConstraint=eastwest;strokeColor=#006658;fontColor=#5C5C5C;" vertex="1" parent="cHJcDGSqetA6E70wZRLV-107">
          <mxGeometry y="90" width="180" height="30" as="geometry" />
        </mxCell>
        <mxCell id="cHJcDGSqetA6E70wZRLV-115" value="" style="shape=partialRectangle;html=1;whiteSpace=wrap;connectable=0;fillColor=none;top=0;left=0;bottom=0;right=0;overflow=hidden;strokeColor=#006658;fontColor=#5C5C5C;" vertex="1" parent="cHJcDGSqetA6E70wZRLV-114">
          <mxGeometry width="40" height="30" as="geometry" />
        </mxCell>
        <mxCell id="cHJcDGSqetA6E70wZRLV-116" value="" style="shape=partialRectangle;html=1;whiteSpace=wrap;connectable=0;fillColor=none;top=0;left=0;bottom=0;right=0;align=left;spacingLeft=6;overflow=hidden;strokeColor=#006658;fontColor=#5C5C5C;" vertex="1" parent="cHJcDGSqetA6E70wZRLV-114">
          <mxGeometry x="40" width="140" height="30" as="geometry" />
        </mxCell>
        <mxCell id="cHJcDGSqetA6E70wZRLV-119" style="edgeStyle=orthogonalEdgeStyle;rounded=0;orthogonalLoop=1;jettySize=auto;html=1;entryX=0;entryY=0.5;entryDx=0;entryDy=0;endArrow=classic;endFill=1;strokeColor=#006658;fontColor=#5C5C5C;" edge="1" parent="WIyWlLk6GJQsqaUBKTNV-1" source="cHJcDGSqetA6E70wZRLV-111" target="cHJcDGSqetA6E70wZRLV-44">
          <mxGeometry relative="1" as="geometry" />
        </mxCell>
        <mxCell id="cHJcDGSqetA6E70wZRLV-190" style="edgeStyle=orthogonalEdgeStyle;curved=0;rounded=1;sketch=0;orthogonalLoop=1;jettySize=auto;html=1;exitX=1;exitY=0.5;exitDx=0;exitDy=0;entryX=-0.017;entryY=0.694;entryDx=0;entryDy=0;entryPerimeter=0;endArrow=ERmany;endFill=0;strokeColor=#006658;fillColor=#21C0A5;fontColor=#5C5C5C;" edge="1" parent="WIyWlLk6GJQsqaUBKTNV-1" source="cHJcDGSqetA6E70wZRLV-77" target="cHJcDGSqetA6E70wZRLV-34">
          <mxGeometry relative="1" as="geometry" />
        </mxCell>
        <mxCell id="cHJcDGSqetA6E70wZRLV-202" style="edgeStyle=orthogonalEdgeStyle;curved=0;rounded=1;sketch=0;orthogonalLoop=1;jettySize=auto;html=1;endArrow=ERmany;endFill=0;strokeColor=#006658;fillColor=#21C0A5;fontColor=#5C5C5C;" edge="1" parent="WIyWlLk6GJQsqaUBKTNV-1" source="cHJcDGSqetA6E70wZRLV-191" target="cHJcDGSqetA6E70wZRLV-30">
          <mxGeometry relative="1" as="geometry" />
        </mxCell>
        <mxCell id="cHJcDGSqetA6E70wZRLV-191" value="Ufficio" style="shape=table;html=1;whiteSpace=wrap;startSize=30;container=1;collapsible=0;childLayout=tableLayout;fixedRows=1;rowLines=0;fontStyle=1;align=center;rounded=0;sketch=0;strokeColor=#006658;fillColor=#21C0A5;fontColor=#5C5C5C;" vertex="1" parent="WIyWlLk6GJQsqaUBKTNV-1">
          <mxGeometry x="510" y="-240" width="180" height="120" as="geometry" />
        </mxCell>
        <mxCell id="cHJcDGSqetA6E70wZRLV-192" value="" style="shape=partialRectangle;html=1;whiteSpace=wrap;collapsible=0;dropTarget=0;pointerEvents=0;fillColor=none;top=0;left=0;bottom=1;right=0;points=[[0,0.5],[1,0.5]];portConstraint=eastwest;" vertex="1" parent="cHJcDGSqetA6E70wZRLV-191">
          <mxGeometry y="30" width="180" height="30" as="geometry" />
        </mxCell>
        <mxCell id="cHJcDGSqetA6E70wZRLV-193" value="PK" style="shape=partialRectangle;html=1;whiteSpace=wrap;connectable=0;fillColor=none;top=0;left=0;bottom=0;right=0;overflow=hidden;" vertex="1" parent="cHJcDGSqetA6E70wZRLV-192">
          <mxGeometry width="40" height="30" as="geometry" />
        </mxCell>
        <mxCell id="cHJcDGSqetA6E70wZRLV-194" value="Id_ufficio" style="shape=partialRectangle;html=1;whiteSpace=wrap;connectable=0;fillColor=none;top=0;left=0;bottom=0;right=0;align=left;spacingLeft=6;overflow=hidden;" vertex="1" parent="cHJcDGSqetA6E70wZRLV-192">
          <mxGeometry x="40" width="140" height="30" as="geometry" />
        </mxCell>
        <mxCell id="cHJcDGSqetA6E70wZRLV-195" value="" style="shape=partialRectangle;html=1;whiteSpace=wrap;collapsible=0;dropTarget=0;pointerEvents=0;fillColor=none;top=0;left=0;bottom=0;right=0;points=[[0,0.5],[1,0.5]];portConstraint=eastwest;" vertex="1" parent="cHJcDGSqetA6E70wZRLV-191">
          <mxGeometry y="60" width="180" height="30" as="geometry" />
        </mxCell>
        <mxCell id="cHJcDGSqetA6E70wZRLV-196" value="" style="shape=partialRectangle;html=1;whiteSpace=wrap;connectable=0;fillColor=none;top=0;left=0;bottom=0;right=0;overflow=hidden;" vertex="1" parent="cHJcDGSqetA6E70wZRLV-195">
          <mxGeometry width="40" height="30" as="geometry" />
        </mxCell>
        <mxCell id="cHJcDGSqetA6E70wZRLV-197" value="nome&lt;br&gt;n_ufficio" style="shape=partialRectangle;html=1;whiteSpace=wrap;connectable=0;fillColor=none;top=0;left=0;bottom=0;right=0;align=left;spacingLeft=6;overflow=hidden;" vertex="1" parent="cHJcDGSqetA6E70wZRLV-195">
          <mxGeometry x="40" width="140" height="30" as="geometry" />
        </mxCell>
        <mxCell id="cHJcDGSqetA6E70wZRLV-198" value="" style="shape=partialRectangle;html=1;whiteSpace=wrap;collapsible=0;dropTarget=0;pointerEvents=0;fillColor=none;top=0;left=0;bottom=0;right=0;points=[[0,0.5],[1,0.5]];portConstraint=eastwest;" vertex="1" parent="cHJcDGSqetA6E70wZRLV-191">
          <mxGeometry y="90" width="180" height="30" as="geometry" />
        </mxCell>
        <mxCell id="cHJcDGSqetA6E70wZRLV-199" value="" style="shape=partialRectangle;html=1;whiteSpace=wrap;connectable=0;fillColor=none;top=0;left=0;bottom=0;right=0;overflow=hidden;" vertex="1" parent="cHJcDGSqetA6E70wZRLV-198">
          <mxGeometry width="40" height="30" as="geometry" />
        </mxCell>
        <mxCell id="cHJcDGSqetA6E70wZRLV-200" value="" style="shape=partialRectangle;html=1;whiteSpace=wrap;connectable=0;fillColor=none;top=0;left=0;bottom=0;right=0;align=left;spacingLeft=6;overflow=hidden;" vertex="1" parent="cHJcDGSqetA6E70wZRLV-198">
          <mxGeometry x="40" width="140" height="30" as="geometry" />
        </mxCell>
        <mxCell id="cHJcDGSqetA6E70wZRLV-203" style="edgeStyle=orthogonalEdgeStyle;curved=0;rounded=1;sketch=0;orthogonalLoop=1;jettySize=auto;html=1;entryX=0.356;entryY=0.006;entryDx=0;entryDy=0;entryPerimeter=0;endArrow=classic;endFill=1;strokeColor=#006658;fillColor=#21C0A5;fontColor=#5C5C5C;" edge="1" parent="WIyWlLk6GJQsqaUBKTNV-1" source="cHJcDGSqetA6E70wZRLV-17" target="cHJcDGSqetA6E70wZRLV-20">
          <mxGeometry relative="1" as="geometry" />
        </mxCell>
        <mxCell id="cHJcDGSqetA6E70wZRLV-204" style="edgeStyle=orthogonalEdgeStyle;curved=0;rounded=1;sketch=0;orthogonalLoop=1;jettySize=auto;html=1;entryX=1.011;entryY=0.66;entryDx=0;entryDy=0;entryPerimeter=0;endArrow=classic;endFill=1;strokeColor=#006658;fillColor=#21C0A5;fontColor=#5C5C5C;" edge="1" parent="WIyWlLk6GJQsqaUBKTNV-1" source="cHJcDGSqetA6E70wZRLV-24" target="cHJcDGSqetA6E70wZRLV-90">
          <mxGeometry relative="1" as="geometry" />
        </mxCell>
      </root>
    </mxGraphModel>
  </diagram>
</mxfile>
